# xmcd
#
# Track frame offsets: 
#        150
#        12766
#        27626
#        40700
#        54796
#        66826
#        80516
#        92541
#        105428
#        119611
#        133114
#        147059
#        159629
#        170833
#        182295
#        194354
#        208715
#        222643
#        236282
#        246939
#
# Disc length: 3442 seconds
#
# Revision: 0
# Processed by: cddbd v1.5.2PL0 Copyright (c) Steve Scherf et al.
# Submitted via: ExactAudioCopy v1.0b1
#
DISCID=150d7014
DTITLE=T-Bone Walker - The Hustle Is On
DYEAR=2006
DGENRE=Texas Blues
TTITLE0=I Got A Break, Baby
TTITLE1=Mean Old World
TTITLE2=Come Back To Me Baby
TTITLE3=Bobby Sox Baby
TTITLE4=Call It Stormy Monday
TTITLE5=She's My Old Time Used To Be
TTITLE6=Long Skirt Baby Blues
TTITLE7=So Blue Blues
TTITLE8=T-Bone Shuffle
TTITLE9=She's The No-Sleepin'Est Woman
TTITLE10=West Side Baby
TTITLE11=Strollin' With Bone
TTITLE12=The Hustle Is On
TTITLE13=Alimony Blues
TTITLE14=Cold, Cold Feeling
TTITLE15=Street Walking Woman
TTITLE16=Here In The Dark
TTITLE17=Pony Tail
TTITLE18=Play On Little Girl
TTITLE19=Papa Ain't Salty
EXTD=
EXTT0=
EXTT1=
EXTT2=
EXTT3=
EXTT4=
EXTT5=
EXTT6=
EXTT7=
EXTT8=
EXTT9=
EXTT10=
EXTT11=
EXTT12=
EXTT13=
EXTT14=
EXTT15=
EXTT16=
EXTT17=
EXTT18=
EXTT19=
PLAYORDER=
